<?xml version="1.0" standalone="no"?>
<!DOCTYPE svg PUBLIC "-//W3C//DTD SVG 20010904//EN"
 "http://www.w3.org/TR/2001/REC-SVG-20010904/DTD/svg10.dtd">
<svg version="1.0" xmlns="http://www.w3.org/2000/svg"
 width="1170.000000pt" height="481.000000pt" viewBox="0 0 1170.000000 481.000000"
 preserveAspectRatio="xMidYMid meet">

<g transform="translate(0.000000,481.000000) scale(0.100000,-0.100000)"
fill="#000000" stroke="none">
<path d="M3020 2855 l0 -1365 4340 0 4340 0 0 1365 0 1365 -4340 0 -4340 0 0
-1365z m5551 842 c66 -44 74 -109 19 -162 -75 -72 -213 -24 -213 75 0 90 113
141 194 87z m-1817 -47 c7 -7 12 -67 14 -165 l3 -153 111 -4 c127 -4 138 -11
138 -87 0 -73 -14 -81 -142 -81 l-108 0 0 -316 c0 -302 1 -318 21 -350 27 -45
77 -74 139 -81 36 -4 55 -12 65 -27 20 -28 19 -96 -2 -125 -15 -22 -20 -23
-89 -18 -146 13 -259 80 -310 184 l-29 58 -5 335 -5 335 -58 5 c-69 6 -87 24
-87 85 0 62 17 78 89 83 l61 4 0 153 c0 159 2 167 45 178 32 9 136 0 149 -13z
m904 9 l32 -11 2 -156 3 -157 113 -5 c130 -6 142 -13 142 -85 0 -72 -12 -79
-142 -85 l-113 -5 0 -310 c0 -278 2 -313 18 -343 24 -44 84 -81 146 -91 29 -5
58 -14 64 -20 7 -7 12 -37 12 -67 0 -44 -4 -59 -19 -70 -26 -18 -87 -18 -159
1 -122 32 -198 90 -243 187 l-29 63 -3 328 -4 327 -51 0 c-68 0 -87 18 -87 82
0 66 23 88 90 88 l50 0 0 138 c0 75 3 147 6 159 10 38 104 56 172 32z m1710
-11 c9 -9 12 -110 12 -395 l0 -383 96 0 97 0 76 73 c42 39 149 141 238 225
l162 152 90 0 c68 0 93 -4 105 -16 9 -8 16 -20 16 -26 0 -13 -67 -80 -308
-308 -106 -100 -191 -186 -190 -190 2 -3 95 -94 208 -201 112 -107 224 -212
247 -235 47 -44 49 -51 30 -78 -9 -12 -32 -19 -74 -23 -111 -10 -107 -13 -358
227 l-230 219 -102 1 -103 0 0 -209 c0 -246 5 -236 -107 -236 -62 0 -77 3 -89
19 -12 17 -14 127 -14 689 0 441 4 675 10 688 9 16 22 19 93 19 51 0 88 -5 95
-12z m-5018 -331 c14 -7 26 -22 28 -33 2 -14 -105 -135 -389 -439 l-392 -420
374 -5 c206 -3 380 -9 387 -13 16 -11 16 -139 0 -155 -17 -17 -1079 -17 -1096
0 -7 7 -12 21 -12 33 0 13 138 168 385 432 212 227 385 415 385 418 0 3 -159
5 -353 5 -418 0 -397 -5 -397 100 0 65 1 69 28 78 43 16 1020 15 1052 -1z
m1167 3 c99 -11 220 -49 293 -95 65 -39 180 -155 180 -180 0 -15 -96 -101
-345 -310 -384 -321 -372 -305 -235 -313 142 -8 264 36 369 134 70 64 94 68
148 22 72 -62 71 -75 -10 -153 -118 -116 -258 -173 -442 -182 -92 -5 -125 -2
-195 16 -275 68 -460 279 -460 521 1 142 49 251 159 360 106 105 219 159 375
179 33 5 63 9 66 10 3 0 46 -4 97 -9z m5644 -4 c82 -18 133 -43 182 -91 49
-48 77 -105 84 -171 8 -75 -2 -84 -92 -84 -81 0 -90 5 -100 63 -24 126 -194
171 -283 74 -25 -27 -39 -90 -28 -132 9 -37 84 -80 201 -116 138 -43 196 -72
243 -123 46 -50 62 -96 62 -181 0 -223 -260 -374 -500 -291 -106 37 -190 132
-212 238 -11 51 -10 59 7 78 15 16 30 20 88 20 80 0 107 -15 107 -60 0 -65 80
-130 160 -130 109 0 187 99 150 190 -17 42 -58 64 -185 101 -138 39 -195 68
-256 129 -162 162 -56 431 193 485 81 17 100 18 179 1z m-2573 -8 c9 -9 12
-139 12 -524 l0 -513 -22 -15 c-30 -21 -126 -21 -156 0 l-22 15 0 513 c0 385
3 515 12 524 16 16 160 16 176 0z"/>
<path d="M5334 3136 c-34 -8 -81 -24 -104 -36 -64 -33 -143 -112 -176 -177
-25 -51 -29 -69 -29 -143 0 -75 3 -91 29 -137 15 -28 41 -64 57 -79 27 -26 28
-26 51 -8 88 70 558 478 558 485 0 14 -73 58 -131 80 -69 27 -177 33 -255 15z"/>
<path d="M0 3435 l0 -133 103 -35 c56 -19 130 -46 164 -60 34 -14 64 -22 67
-19 3 3 6 60 6 128 l0 122 -47 18 c-27 9 -103 39 -170 64 l-123 48 0 -133z"/>
<path d="M2005 2688 c-145 -13 -145 -13 -145 -48 0 -26 -3 -30 -29 -30 -63 0
-61 10 -61 -242 l0 -230 53 6 c28 3 115 10 192 16 77 6 161 13 188 16 l47 6 0
230 0 230 -60 -4 c-59 -3 -59 -3 -62 26 -2 16 -7 30 -13 31 -5 1 -55 -2 -110
-7z"/>
<path d="M1215 2623 c-16 -3 -115 -12 -220 -21 l-190 -17 -3 -127 -3 -128 33
0 c18 0 94 5 168 10 74 6 168 13 208 16 l72 6 0 134 c0 148 5 137 -65 127z"/>
</g>
</svg>
